<?xml version="1.0" encoding="utf-8"?>
<!-- Generator: Adobe Illustrator 19.0.0, SVG Export Plug-In . SVG Version: 6.00 Build 0)  -->
<svg version="1.1" id="Capa_1" xmlns="http://www.w3.org/2000/svg" xmlns:xlink="http://www.w3.org/1999/xlink" x="0px" y="0px"
	 viewBox="0 0 141.5 38.7" style="enable-background:new 0 0 141.5 38.7;" xml:space="preserve">
<style type="text/css">
	.st0{fill:#FFFFFF;}
	.st1{fill-rule:evenodd;clip-rule:evenodd;fill:#FFFFFF;}
	.st2{fill-rule:evenodd;clip-rule:evenodd;fill:#31985F;}
</style>
<path id="XMLID_12_" class="st0" d="M82,13.7h2.8v15.7c0,3.7,1.8,5.7,5.2,5.7c1.7,0,2.8-0.4,4.3-1l-0.7-2c-1.2,0.5-2.1,0.7-3,0.7
	c-1.9,0-3.1-1-3.1-3.3V11.5H82V13.7L82,13.7z"/>
<path id="XMLID_11_" class="st0" d="M47.3,28.4c0,3.9,1.5,6.6,6.1,6.6c1.7,0,3.6-0.4,5-1l-0.6-2c-1.1,0.4-2.3,0.7-3.8,0.7
	c-3.1,0-4-1.5-4-4.3V13.7h7.8v-2.2H50V7.1h-2.7v4.4h-2.8v2.2h2.8V28.4L47.3,28.4z"/>
<path id="XMLID_10_" class="st0" d="M113,28.4c0,3.9,1.5,6.6,6.1,6.6c1.7,0,3.6-0.4,5-1l-0.6-2c-1.1,0.4-2.3,0.7-3.8,0.7
	c-3.1,0-4-1.5-4-4.3V13.7h7.8v-2.2h-7.8V7.1H113v4.4h-2.8v2.2h2.8V28.4L113,28.4z"/>
<polygon id="XMLID_9_" class="st0" points="4.2,13.7 7,13.7 7,32.3 3,32.3 3,35 7,35 9.6,35 13.6,35 13.6,32.3 9.6,32.3 9.6,11.6 
	4.2,11.6 4.2,13.7 "/>
<polygon id="XMLID_8_" class="st1" points="6.9,2.9 9.6,2.9 9.6,7.6 6.9,7.6 6.9,2.9 "/>
<polygon id="XMLID_7_" class="st0" points="99.5,13.7 102.3,13.7 102.3,32.3 98.3,32.3 98.3,35 102.3,35 105,35 109,35 109,32.3 
	105,32.3 105,11.6 99.5,11.6 99.5,13.7 "/>
<polygon id="XMLID_6_" class="st1" points="102.3,2.9 105,2.9 105,7.6 102.3,7.6 102.3,2.9 "/>
<polygon id="XMLID_5_" class="st0" points="129.3,13.7 132.1,13.7 132.1,32.3 128.1,32.3 128.1,35 132.1,35 134.8,35 138.8,35 
	138.8,32.3 134.8,32.3 134.8,11.6 129.3,11.6 129.3,13.7 "/>
<polygon id="XMLID_4_" class="st1" points="132.1,2.9 134.8,2.9 134.8,7.6 132.1,7.6 132.1,2.9 "/>
<path id="XMLID_3_" class="st0" d="M24.3,11.6h-1.6l0,0h-3.9v2.2h2.8v18.6h-4V35h10.7v-2.6h-4l0,0v-15c1.9-1.9,4.9-3.9,6.8-3.9
	c2.6,0,5.5,1.4,5.5,4.4v14.4h-4V35h10.7v-2.6h-4V17.6c0-4.2-3.9-6.5-7.7-6.5c-2.5,0-5.7,1.4-7.3,3.2"/>
<path id="XMLID_14_" class="st2" d="M77.6,17.3v0.6l-12.1,5.6l-0.6-0.4v-4.9c0-2.3,1-3.4,3.1-3.4h6.6c1.1,0,1.8,0.2,2.3,0.6
	C77.4,15.7,77.6,16.3,77.6,17.3L77.6,17.3z M75.3,31.7c-1,0-7.1,0-7.1,0c-1.1,0-1.8-0.2-2.3-0.6c-0.4-0.4-0.7-1.2-0.9-2.5v-1.4
	l15.8-7.4v-2.6c0-1.8-0.5-3.2-1.6-4.3c-1.1-1-2.5-1.5-4.4-1.5l0,0h-6c-2.4,0-4.2,0.5-5.3,1.6c-1.1,1.1-1.7,2.7-1.7,5V29
	c0,1.4,0.4,2.7,1.2,3.8c0.6,0.8,1.3,1.3,2.1,1.7c0.8,0.4,1.7,0.5,2.9,0.5h13.1C81.1,35,80.4,31.7,75.3,31.7z"/>
</svg>
